
<svg width="152" height="167" viewBox="0 0 152 167" fill="none" xmlns="http://www.w3.org/2000/svg">
<rect x="0.387276" y="8.61371" width="25.1148" height="150.799" rx="3" fill="url(#paint0_linear)"/>
<line x1="12.7477" y1="17.6607" x2="12.758" y2="151.871" stroke="white" stroke-dasharray="6 6"/>
<path d="M144.335 69.8965C151.527 73.8996 154.113 82.9753 150.11 90.1677C146.107 97.3601 137.031 99.9454 129.838 95.9423L7.65975 27.9403C0.467375 23.9372 -2.11804 14.8614 1.88508 7.66908C5.8882 0.476707 14.9639 -2.10869 22.1563 1.89443L144.335 69.8965Z" fill="url(#paint1_linear)"/>
<path d="M144.337 96.1839C151.529 92.1797 154.113 83.1036 150.109 75.9118C146.104 68.7201 137.028 66.1361 129.836 70.1403L7.66817 138.161C0.476416 142.165 -2.10761 151.241 1.89661 158.433C5.90083 165.625 14.977 168.209 22.1687 164.205L144.337 96.1839Z" fill="url(#paint2_linear)"/>
<defs>
<linearGradient id="paint0_linear" x1="12.9447" y1="8.61371" x2="12.6052" y2="106.158" gradientUnits="userSpaceOnUse">
<stop stop-color="#3F3F3F"/>
<stop offset="1" stop-color="#333333"/>
</linearGradient>
<linearGradient id="paint1_linear" x1="10.5106" y1="8.40847" x2="138.74" y2="84.0847" gradientUnits="userSpaceOnUse">
<stop stop-color="#33A5F1"/>
<stop offset="1" stop-color="#0C80CE"/>
</linearGradient>
<linearGradient id="paint2_linear" x1="10.5106" y1="8.40847" x2="138.74" y2="84.0847" gradientUnits="userSpaceOnUse">
<stop stop-color="#33A5F1"/>
<stop offset="1" stop-color="#0C80CE"/>
</linearGradient>
</defs>
</svg>
