<svg width="200" height="200" viewBox="0 0 200 200" fill="none" xmlns="http://www.w3.org/2000/svg">
    <g filter="url(#filter0_d)">
        <rect x="24.3873" y="25.6137" width="25.1148" height="150.799" rx="3" fill="url(#paint0_linear)" />
        <path d="M37 47.9999L37.0103 182.211" stroke="white" stroke-width="3" stroke-dasharray="8 8" />
    </g>
    <path
        d="M168.335 86.8965C175.527 90.8996 178.113 99.9753 174.11 107.168C170.107 114.36 161.031 116.945 153.838 112.942L31.6597 44.9403C24.4674 40.9372 21.882 31.8614 25.8851 24.6691C29.8882 17.4767 38.9639 14.8913 46.1563 18.8944L168.335 86.8965Z"
        fill="url(#paint1_linear)" />
    <path
        d="M168.337 113.184C175.529 109.18 178.113 100.104 174.109 92.9118C170.104 85.7201 161.028 83.1361 153.836 87.1403L31.6682 155.161C24.4764 159.165 21.8924 168.241 25.8966 175.433C29.9008 182.625 38.977 185.209 46.1687 181.205L168.337 113.184Z"
        fill="url(#paint2_linear)" />
    <defs>
        <filter id="filter0_d" x="20.3873" y="25.6118" width="33.1263" height="164.599" filterUnits="userSpaceOnUse"
            color-interpolation-filters="sRGB">
            <feFlood flood-opacity="0" result="BackgroundImageFix" />
            <feColorMatrix in="SourceAlpha" type="matrix" values="0 0 0 0 0 0 0 0 0 0 0 0 0 0 0 0 0 0 127 0" />
            <feOffset dy="4" />
            <feGaussianBlur stdDeviation="2" />
            <feColorMatrix type="matrix" values="0 0 0 0 0 0 0 0 0 0 0 0 0 0 0 0 0 0 0.25 0" />
            <feBlend mode="normal" in2="BackgroundImageFix" result="effect1_dropShadow" />
            <feBlend mode="normal" in="SourceGraphic" in2="effect1_dropShadow" result="shape" />
        </filter>
        <linearGradient id="paint0_linear" x1="36.9447" y1="25.6137" x2="36.6052" y2="123.158"
            gradientUnits="userSpaceOnUse">
            <stop stop-color="#3F3F3F" />
            <stop offset="1" stop-color="#333333" />
        </linearGradient>
        <linearGradient id="paint1_linear" x1="34.5106" y1="25.4085" x2="162.74" y2="101.085"
            gradientUnits="userSpaceOnUse">
            <stop stop-color="#33A5F1" />
            <stop offset="1" stop-color="#0C80CE" />
        </linearGradient>
        <linearGradient id="paint2_linear" x1="34.5106" y1="25.4085" x2="162.74" y2="101.085"
            gradientUnits="userSpaceOnUse">
            <stop stop-color="#33A5F1" />
            <stop offset="1" stop-color="#0C80CE" />
        </linearGradient>
    </defs>
</svg>