<svg width="664" height="387" viewBox="0 0 664 387" fill="none" xmlns="http://www.w3.org/2000/svg">
<path d="M214.447 377.315C318.613 377.315 403.056 292.85 403.056 188.658C403.056 84.4649 318.613 0 214.447 0C110.281 0 25.8375 84.4649 25.8375 188.658C25.8375 292.85 110.281 377.315 214.447 377.315Z" fill="#F2F2F2"/>
<path d="M664 334.668C663.999 335.126 663.962 335.584 663.89 336.037C659.278 364.31 512.449 387 332 387C151.551 387 4.72163 364.31 0.109804 336.037C0.03771 335.584 0.000998321 335.126 0 334.668C0 334.538 -2.16812e-06 334.403 0.0129161 334.273C0.0129161 334.202 0.0193766 334.138 0.0193766 334.067C0.0247119 334.041 0.0268827 334.015 0.0258372 333.989C0.0516737 333.698 0.0904288 333.421 0.142102 333.136C2.24778 321.578 28.1425 310.956 70.3788 302.448C104.922 295.489 150.401 289.939 202.746 286.451C242.47 283.802 286.147 282.335 332 282.335C368.895 282.335 404.381 283.285 437.529 285.029H437.542C444.48 285.397 451.313 285.8 458.044 286.237C504.117 289.222 545.003 293.79 577.945 299.508C598.207 303.029 615.472 306.989 629.095 311.279H629.101C650.068 317.889 662.43 325.299 663.858 333.136C663.91 333.421 663.948 333.698 663.974 333.989C663.973 334.015 663.975 334.041 663.981 334.067C663.981 334.138 663.987 334.202 663.987 334.273C664 334.403 664 334.538 664 334.668Z" fill="#3F3D56"/>
<path opacity="0.1" d="M348.576 369.012C407.436 369.012 455.152 362.07 455.152 353.506C455.152 344.942 407.436 338 348.576 338C289.716 338 242 344.942 242 353.506C242 362.07 289.716 369.012 348.576 369.012Z" fill="black"/>
<path opacity="0.1" d="M629.095 311.279C625.368 312.345 621.169 313.334 616.564 314.238C597.6 317.973 571.725 320.266 543.233 320.266C511.403 320.266 482.873 317.404 463.541 312.875C447.496 309.115 437.781 304.224 437.781 298.855C437.781 294.139 445.3 289.772 458.044 286.237C504.117 289.222 545.003 293.79 577.945 299.508C598.207 303.029 615.472 306.989 629.095 311.279Z" fill="black"/>
<path d="M295.93 216.42H269.005V303.373H295.93V216.42Z" fill="#33A5F1"/>
<path d="M207.462 175.638H180.537V303.373H207.462V175.638Z" fill="#33A5F1"/>
<path d="M119.763 175.638H92.8375V303.373H119.763V175.638Z" fill="#33A5F1"/>
<path d="M163.612 175.638H136.687V262.59H163.612V175.638Z" fill="#33A5F1"/>
<path d="M251.311 175.638H224.386V201.031H251.311V175.638Z" fill="#33A5F1"/>
<path d="M251.311 216.42H224.386V303.373H251.311V216.42Z" fill="#8A8B8C"/>
<path d="M339.78 175.638H269.005V201.031H339.78V175.638Z" fill="#33A5F1"/>
<path d="M526.46 167.999C544.868 167.999 560.537 174.426 573.466 187.278C579.555 193.321 584.353 200.539 587.567 208.494C593.973 224.768 593.995 242.863 587.629 259.153C584.463 267.016 579.679 274.124 573.587 280.017C567.323 286.258 559.897 291.21 551.729 294.593C543.725 297.934 535.137 299.652 526.464 299.647C517.89 299.673 509.397 297.974 501.492 294.651C485.389 287.794 472.565 274.968 465.709 258.861C459.108 242.798 459.129 224.776 465.767 208.729C469.129 200.648 474.062 193.317 480.279 187.159C492.814 174.389 508.207 168.002 526.46 167.999ZM526.699 179.873C511.657 179.873 499.004 185.123 488.74 195.623C483.678 200.71 479.631 206.714 476.812 213.314C474.059 219.781 472.639 226.737 472.639 233.766C472.639 240.795 474.059 247.751 476.812 254.218C482.488 267.405 493.034 277.892 506.251 283.492C512.746 286.178 519.707 287.556 526.735 287.546C533.764 287.536 540.721 286.139 547.208 283.434C553.882 280.653 559.963 276.624 565.127 271.563C575.389 261.533 580.519 248.955 580.518 233.829C580.555 226.737 579.198 219.708 576.522 213.141C573.849 206.621 569.895 200.705 564.894 195.743C554.311 185.163 541.58 179.873 526.699 179.873ZM525.874 222.895L517.058 227.481C516.346 225.79 515.138 224.355 513.593 223.367C512.442 222.65 511.126 222.245 509.772 222.192C503.898 222.192 500.96 226.071 500.957 233.829C500.957 237.354 501.701 240.175 503.189 242.289C504.678 244.406 506.872 245.465 509.772 245.465C513.611 245.465 516.315 243.584 517.883 239.823L525.989 243.937C524.334 247.079 521.848 249.706 518.801 251.531C515.755 253.355 512.265 254.307 508.715 254.282C502.839 254.282 498.099 252.479 494.494 248.874C490.891 245.27 489.089 240.255 489.089 233.831C489.089 227.561 490.911 222.585 494.554 218.903C498.196 215.221 502.799 213.379 508.363 213.378C516.513 213.373 522.35 216.546 525.874 222.895ZM563.831 222.895L555.134 227.481C554.423 225.789 553.213 224.354 551.667 223.367C550.479 222.639 549.123 222.234 547.731 222.192C541.855 222.192 538.916 226.071 538.914 233.829C538.914 237.354 539.659 240.175 541.148 242.289C542.635 244.406 544.829 245.465 547.731 245.465C551.566 245.465 554.268 243.584 555.835 239.823L564.061 243.937C562.345 247.063 559.833 249.679 556.779 251.519C553.77 253.348 550.312 254.305 546.791 254.282C540.835 254.282 536.077 252.479 532.517 248.874C528.947 245.27 527.163 240.255 527.166 233.831C527.166 227.561 528.988 222.585 532.632 218.903C536.272 215.221 540.874 213.379 546.437 213.378C554.585 213.373 560.383 216.546 563.831 222.895Z" fill="#33A5F1"/>
<rect x="323.28" y="240.233" width="18.1752" height="109.131" rx="3" fill="url(#paint0_linear)"/>
<line x1="332.363" y1="246.78" x2="332.371" y2="343.906" stroke="white" stroke-dasharray="6 6"/>
<path d="M427.453 284.583C432.658 287.48 434.529 294.048 431.632 299.253C428.735 304.458 422.167 306.329 416.962 303.432L328.543 254.22C323.338 251.323 321.467 244.755 324.364 239.55C327.261 234.345 333.829 232.474 339.034 235.371L427.453 284.583Z" fill="url(#paint1_linear)"/>
<path d="M427.454 303.607C432.659 300.709 434.529 294.141 431.631 288.936C428.733 283.732 422.165 281.862 416.961 284.759L328.549 333.985C323.345 336.883 321.475 343.451 324.373 348.656C327.27 353.86 333.839 355.73 339.043 352.832L427.454 303.607Z" fill="url(#paint2_linear)"/>
<defs>
<linearGradient id="paint0_linear" x1="332.368" y1="240.233" x2="332.122" y2="310.824" gradientUnits="userSpaceOnUse">
<stop stop-color="#3F3F3F"/>
<stop offset="1" stop-color="#333333"/>
</linearGradient>
<linearGradient id="paint1_linear" x1="330.606" y1="240.085" x2="423.404" y2="294.851" gradientUnits="userSpaceOnUse">
<stop stop-color="#33A5F1"/>
<stop offset="1" stop-color="#0C80CE"/>
</linearGradient>
<linearGradient id="paint2_linear" x1="330.606" y1="240.085" x2="423.404" y2="294.851" gradientUnits="userSpaceOnUse">
<stop stop-color="#33A5F1"/>
<stop offset="1" stop-color="#0C80CE"/>
</linearGradient>
</defs>
</svg>
