<svg width="1127" height="855" viewBox="0 0 1127 855" fill="none" xmlns="http://www.w3.org/2000/svg">
<g clip-path="url(#clip0)">
<path d="M544.864 755.938C302.465 737.491 13.3935 549.672 28.1106 356.281C42.8277 162.889 322.797 -17.1415 565.196 1.305C807.595 19.7515 947.128 381.167 932.411 574.558C917.693 767.949 787.263 774.384 544.864 755.938Z" fill="#F2F2F2"/>
<path d="M565.194 787C844.65 787 1071.19 773.121 1071.19 756C1071.19 738.879 844.65 725 565.194 725C285.737 725 59.1935 738.879 59.1935 756C59.1935 773.121 285.737 787 565.194 787Z" fill="#3F3D56"/>
<path opacity="0.1" d="M565.194 776C803.228 776 996.194 766.822 996.194 755.5C996.194 744.178 803.228 735 565.194 735C327.159 735 134.194 744.178 134.194 755.5C134.194 766.822 327.159 776 565.194 776Z" fill="black"/>
<path d="M948.194 162H196.194V752H948.194V162Z" fill="#3F3D56"/>
<path d="M563.638 242.629H378.12C377.824 242.63 377.531 242.572 377.257 242.459C376.984 242.346 376.735 242.181 376.525 241.971C376.316 241.762 376.15 241.514 376.036 241.24C375.923 240.967 375.864 240.674 375.864 240.378C375.864 240.082 375.923 239.789 376.036 239.515C376.15 239.242 376.316 238.993 376.525 238.784C376.735 238.575 376.984 238.409 377.257 238.296C377.531 238.183 377.824 238.126 378.12 238.126H563.638C564.234 238.128 564.806 238.365 565.227 238.787C565.648 239.209 565.885 239.781 565.885 240.378C565.885 240.974 565.648 241.546 565.227 241.968C564.806 242.39 564.234 242.628 563.638 242.629V242.629Z" fill="#F2F2F2"/>
<path d="M766.717 267.395H474.932C474.335 267.395 473.762 267.158 473.34 266.735C472.918 266.313 472.68 265.741 472.68 265.143C472.68 264.546 472.918 263.974 473.34 263.551C473.762 263.129 474.335 262.892 474.932 262.892H766.717C767.013 262.892 767.305 262.95 767.579 263.063C767.852 263.177 768.1 263.342 768.309 263.551C768.518 263.76 768.684 264.009 768.797 264.282C768.91 264.555 768.968 264.848 768.968 265.143C768.968 265.439 768.91 265.732 768.797 266.005C768.684 266.278 768.518 266.526 768.309 266.735C768.1 266.945 767.852 267.11 767.579 267.223C767.305 267.337 767.013 267.395 766.717 267.395V267.395Z" fill="#F2F2F2"/>
<path d="M564.539 292.161H379.021C378.424 292.161 377.851 291.923 377.429 291.501C377.007 291.079 376.77 290.506 376.77 289.909C376.77 289.312 377.007 288.739 377.429 288.317C377.851 287.895 378.424 287.658 379.021 287.658H564.539C565.136 287.658 565.708 287.895 566.131 288.317C566.553 288.739 566.79 289.312 566.79 289.909C566.79 290.506 566.553 291.079 566.131 291.501C565.708 291.923 565.136 292.161 564.539 292.161V292.161Z" fill="#F2F2F2"/>
<path d="M766.717 292.611H581.199C580.602 292.611 580.029 292.374 579.607 291.951C579.185 291.529 578.948 290.957 578.948 290.359C578.948 289.762 579.185 289.19 579.607 288.767C580.029 288.345 580.602 288.108 581.199 288.108H766.717C767.314 288.108 767.887 288.345 768.309 288.767C768.731 289.19 768.968 289.762 768.968 290.359C768.968 290.957 768.731 291.529 768.309 291.951C767.887 292.374 767.314 292.611 766.717 292.611V292.611Z" fill="#F2F2F2"/>
<path d="M564.989 316.926H379.471C378.874 316.926 378.302 316.689 377.879 316.267C377.457 315.845 377.22 315.272 377.22 314.675C377.22 314.078 377.457 313.505 377.879 313.083C378.302 312.661 378.874 312.423 379.471 312.423H564.989C565.586 312.423 566.159 312.661 566.581 313.083C567.003 313.505 567.24 314.078 567.24 314.675C567.24 315.272 567.003 315.845 566.581 316.267C566.159 316.689 565.586 316.926 564.989 316.926V316.926Z" fill="#F2F2F2"/>
<path d="M565.439 341.692H379.922C379.324 341.692 378.752 341.455 378.33 341.033C377.907 340.61 377.67 340.038 377.67 339.441C377.67 338.843 377.907 338.271 378.33 337.849C378.752 337.426 379.324 337.189 379.922 337.189H565.439C566.036 337.189 566.609 337.426 567.031 337.849C567.454 338.271 567.691 338.843 567.691 339.441C567.691 340.038 567.454 340.61 567.031 341.033C566.609 341.455 566.036 341.692 565.439 341.692V341.692Z" fill="#F2F2F2"/>
<path d="M649.643 243.079H596.509C595.912 243.079 595.339 242.842 594.917 242.42C594.495 241.998 594.258 241.425 594.258 240.828C594.258 240.231 594.495 239.658 594.917 239.236C595.339 238.814 595.912 238.577 596.509 238.577H649.643C650.24 238.577 650.813 238.814 651.235 239.236C651.657 239.658 651.894 240.231 651.894 240.828C651.894 241.425 651.657 241.998 651.235 242.42C650.813 242.842 650.24 243.079 649.643 243.079V243.079Z" fill="#F2F2F2"/>
<path d="M649.643 316.926H596.509C595.912 316.926 595.339 316.689 594.917 316.267C594.495 315.845 594.258 315.272 594.258 314.675C594.258 314.078 594.495 313.505 594.917 313.083C595.339 312.661 595.912 312.423 596.509 312.423H649.643C650.24 312.423 650.813 312.661 651.235 313.083C651.657 313.505 651.894 314.078 651.894 314.675C651.894 315.272 651.657 315.845 651.235 316.267C650.813 316.689 650.24 316.926 649.643 316.926V316.926Z" fill="#F2F2F2"/>
<path d="M649.643 341.242H596.509C596.213 341.242 595.92 341.185 595.646 341.072C595.372 340.959 595.123 340.793 594.914 340.584C594.704 340.375 594.538 340.126 594.425 339.853C594.311 339.58 594.253 339.286 594.253 338.99C594.253 338.694 594.311 338.401 594.425 338.128C594.538 337.854 594.704 337.606 594.914 337.397C595.123 337.187 595.372 337.022 595.646 336.909C595.92 336.796 596.213 336.738 596.509 336.739H649.643C649.939 336.738 650.232 336.796 650.506 336.909C650.779 337.022 651.028 337.187 651.238 337.397C651.447 337.606 651.613 337.854 651.727 338.128C651.84 338.401 651.899 338.694 651.899 338.99C651.899 339.286 651.84 339.58 651.727 339.853C651.613 340.126 651.447 340.375 651.238 340.584C651.028 340.793 650.779 340.959 650.506 341.072C650.232 341.185 649.939 341.242 649.643 341.242V341.242Z" fill="#F2F2F2"/>
<path d="M738.799 341.242H685.666C685.069 341.24 684.498 341.003 684.077 340.581C683.655 340.159 683.419 339.587 683.419 338.99C683.419 338.394 683.655 337.822 684.077 337.4C684.498 336.978 685.069 336.74 685.666 336.739H738.799C739.095 336.738 739.389 336.796 739.662 336.909C739.936 337.022 740.185 337.187 740.394 337.397C740.604 337.606 740.77 337.854 740.884 338.128C740.997 338.401 741.055 338.694 741.055 338.99C741.055 339.286 740.997 339.58 740.884 339.853C740.77 340.126 740.604 340.375 740.394 340.584C740.185 340.793 739.936 340.959 739.662 341.072C739.389 341.185 739.095 341.242 738.799 341.242V341.242Z" fill="#F2F2F2"/>
<path d="M430.804 267.395H377.67C377.073 267.395 376.5 267.158 376.078 266.735C375.656 266.313 375.419 265.741 375.419 265.143C375.419 264.546 375.656 263.974 376.078 263.551C376.5 263.129 377.073 262.892 377.67 262.892H430.804C431.401 262.892 431.974 263.129 432.396 263.551C432.818 263.974 433.055 264.546 433.055 265.143C433.055 265.741 432.818 266.313 432.396 266.735C431.974 267.158 431.401 267.395 430.804 267.395V267.395Z" fill="#F2F2F2"/>
<path d="M563.863 607.361H378.346C377.748 607.361 377.176 607.123 376.754 606.701C376.331 606.279 376.094 605.706 376.094 605.109C376.094 604.512 376.331 603.939 376.754 603.517C377.176 603.095 377.748 602.858 378.346 602.858H563.863C564.46 602.858 565.033 603.095 565.455 603.517C565.878 603.939 566.115 604.512 566.115 605.109C566.115 605.706 565.878 606.279 565.455 606.701C565.033 607.123 564.46 607.361 563.863 607.361Z" fill="#F2F2F2"/>
<path d="M562.963 656.892H377.445C376.848 656.892 376.275 656.655 375.853 656.233C375.431 655.81 375.194 655.238 375.194 654.641C375.194 654.043 375.431 653.471 375.853 653.049C376.275 652.626 376.848 652.389 377.445 652.389H562.963C563.56 652.389 564.132 652.626 564.555 653.049C564.977 653.471 565.214 654.043 565.214 654.641C565.214 655.238 564.977 655.81 564.555 656.233C564.132 656.655 563.56 656.892 562.963 656.892Z" fill="#F2F2F2"/>
<path d="M563.413 681.658H377.895C377.599 681.658 377.306 681.601 377.032 681.488C376.759 681.375 376.51 681.209 376.3 681C376.091 680.791 375.924 680.542 375.811 680.269C375.697 679.996 375.639 679.702 375.639 679.406C375.639 679.11 375.697 678.817 375.811 678.544C375.924 678.27 376.091 678.022 376.3 677.813C376.51 677.604 376.759 677.438 377.032 677.325C377.306 677.212 377.599 677.154 377.895 677.155H563.413C563.709 677.154 564.002 677.212 564.276 677.325C564.55 677.438 564.798 677.604 565.008 677.813C565.218 678.022 565.384 678.27 565.497 678.544C565.611 678.817 565.669 679.11 565.669 679.406C565.669 679.702 565.611 679.996 565.497 680.269C565.384 680.542 565.218 680.791 565.008 681C564.798 681.209 564.55 681.375 564.276 681.488C564.002 681.601 563.709 681.658 563.413 681.658V681.658Z" fill="#F2F2F2"/>
<path d="M642.663 657.342H589.53C588.932 657.342 588.36 657.105 587.938 656.683C587.515 656.261 587.278 655.688 587.278 655.091C587.278 654.494 587.515 653.921 587.938 653.499C588.36 653.077 588.932 652.839 589.53 652.839H642.663C643.26 652.839 643.833 653.077 644.255 653.499C644.677 653.921 644.915 654.494 644.915 655.091C644.915 655.688 644.677 656.261 644.255 656.683C643.833 657.105 643.26 657.342 642.663 657.342Z" fill="#F2F2F2"/>
<path d="M642.663 681.658H589.53C588.932 681.658 588.36 681.421 587.938 680.998C587.515 680.576 587.278 680.003 587.278 679.406C587.278 678.809 587.515 678.236 587.938 677.814C588.36 677.392 588.932 677.155 589.53 677.155H642.663C643.26 677.155 643.833 677.392 644.255 677.814C644.677 678.236 644.915 678.809 644.915 679.406C644.915 680.003 644.677 680.576 644.255 680.998C643.833 681.421 643.26 681.658 642.663 681.658V681.658Z" fill="#F2F2F2"/>
<path d="M731.82 657.342H678.686C678.089 657.342 677.516 657.105 677.094 656.683C676.672 656.261 676.435 655.688 676.435 655.091C676.435 654.494 676.672 653.921 677.094 653.499C677.516 653.077 678.089 652.839 678.686 652.839H731.82C732.417 652.839 732.99 653.077 733.412 653.499C733.834 653.921 734.071 654.494 734.071 655.091C734.071 655.688 733.834 656.261 733.412 656.683C732.99 657.105 732.417 657.342 731.82 657.342V657.342Z" fill="#F2F2F2"/>
<path d="M766.942 632.126H475.157C474.56 632.126 473.987 631.889 473.565 631.467C473.143 631.045 472.906 630.472 472.906 629.875C472.906 629.278 473.143 628.705 473.565 628.283C473.987 627.861 474.56 627.623 475.157 627.623H766.942C767.539 627.623 768.112 627.861 768.534 628.283C768.956 628.705 769.194 629.278 769.194 629.875C769.194 630.472 768.956 631.045 768.534 631.467C768.112 631.889 767.539 632.126 766.942 632.126V632.126Z" fill="#F2F2F2"/>
<path d="M431.029 632.126H377.895C377.298 632.126 376.725 631.889 376.303 631.467C375.881 631.045 375.644 630.472 375.644 629.875C375.644 629.278 375.881 628.705 376.303 628.283C376.725 627.861 377.298 627.623 377.895 627.623H431.029C431.626 627.623 432.199 627.861 432.621 628.283C433.043 628.705 433.28 629.278 433.28 629.875C433.28 630.472 433.043 631.045 432.621 631.467C432.199 631.889 431.626 632.126 431.029 632.126V632.126Z" fill="#F2F2F2"/>
<path d="M766.942 706.874H475.157C474.861 706.874 474.568 706.817 474.294 706.704C474.02 706.591 473.771 706.425 473.562 706.216C473.352 706.007 473.186 705.758 473.073 705.485C472.959 705.212 472.901 704.918 472.901 704.622C472.901 704.326 472.959 704.033 473.073 703.76C473.186 703.486 473.352 703.238 473.562 703.029C473.771 702.82 474.02 702.654 474.294 702.541C474.568 702.428 474.861 702.37 475.157 702.371H766.942C767.539 702.371 768.112 702.608 768.534 703.03C768.956 703.453 769.194 704.025 769.194 704.622C769.194 705.219 768.956 705.792 768.534 706.214C768.112 706.637 767.539 706.874 766.942 706.874V706.874Z" fill="#F2F2F2"/>
<path d="M431.029 706.874H377.895C377.599 706.874 377.306 706.817 377.032 706.704C376.759 706.591 376.51 706.425 376.3 706.216C376.091 706.007 375.924 705.758 375.811 705.485C375.697 705.212 375.639 704.918 375.639 704.622C375.639 704.326 375.697 704.033 375.811 703.76C375.924 703.486 376.091 703.238 376.3 703.029C376.51 702.82 376.759 702.654 377.032 702.541C377.306 702.428 377.599 702.37 377.895 702.371H431.029C431.325 702.37 431.618 702.428 431.892 702.541C432.166 702.654 432.414 702.82 432.624 703.029C432.834 703.238 433 703.486 433.113 703.76C433.227 704.033 433.285 704.326 433.285 704.622C433.285 704.918 433.227 705.212 433.113 705.485C433 705.758 432.834 706.007 432.624 706.216C432.414 706.425 432.166 706.591 431.892 706.704C431.618 706.817 431.325 706.874 431.029 706.874Z" fill="#F2F2F2"/>
<path d="M216.194 186C221.164 186 225.194 181.971 225.194 177C225.194 172.029 221.164 168 216.194 168C211.223 168 207.194 172.029 207.194 177C207.194 181.971 211.223 186 216.194 186Z" fill="#33A5F1"/>
<path d="M240.194 186C245.164 186 249.194 181.971 249.194 177C249.194 172.029 245.164 168 240.194 168C235.223 168 231.194 172.029 231.194 177C231.194 181.971 235.223 186 240.194 186Z" fill="#33A5F1"/>
<path d="M264.194 186C269.164 186 273.194 181.971 273.194 177C273.194 172.029 269.164 168 264.194 168C259.223 168 255.194 172.029 255.194 177C255.194 181.971 259.223 186 264.194 186Z" fill="#33A5F1"/>
<path opacity="0.1" d="M948.194 192H196.194V195H948.194V192Z" fill="black"/>
<rect x="503.387" y="397.614" width="25.1148" height="150.799" rx="3" fill="url(#paint0_linear)"/>
<line x1="515.748" y1="406.661" x2="515.758" y2="540.871" stroke="white" stroke-dasharray="6 6"/>
<path d="M647.335 458.896C654.527 462.9 657.113 471.975 653.11 479.168C649.107 486.36 640.031 488.945 632.838 484.942L510.66 416.94C503.467 412.937 500.882 403.861 504.885 396.669C508.888 389.477 517.964 386.891 525.156 390.894L647.335 458.896Z" fill="url(#paint1_linear)"/>
<path d="M647.337 485.184C654.529 481.18 657.113 472.104 653.109 464.912C649.104 457.72 640.028 455.136 632.836 459.14L510.668 527.161C503.476 531.165 500.892 540.241 504.897 547.433C508.901 554.625 517.977 557.209 525.169 553.205L647.337 485.184Z" fill="url(#paint2_linear)"/>
</g>
<defs>
<linearGradient id="paint0_linear" x1="515.945" y1="397.614" x2="515.605" y2="495.158" gradientUnits="userSpaceOnUse">
<stop stop-color="#3F3F3F"/>
<stop offset="1" stop-color="#333333"/>
</linearGradient>
<linearGradient id="paint1_linear" x1="513.511" y1="397.408" x2="641.74" y2="473.085" gradientUnits="userSpaceOnUse">
<stop stop-color="#33A5F1"/>
<stop offset="1" stop-color="#0C80CE"/>
</linearGradient>
<linearGradient id="paint2_linear" x1="513.511" y1="397.408" x2="641.74" y2="473.085" gradientUnits="userSpaceOnUse">
<stop stop-color="#33A5F1"/>
<stop offset="1" stop-color="#0C80CE"/>
</linearGradient>
<clipPath id="clip0">
<rect width="1126.19" height="855" fill="white"/>
</clipPath>
</defs>
</svg>
