<svg width="1088" height="827" viewBox="0 0 1088 827" fill="none" xmlns="http://www.w3.org/2000/svg">
<g clip-path="url(#clip0)">
<path d="M934.987 329.388C887.167 141.348 721.934 5.61004 527.985 0.165699C425.451 -2.71256 317.556 31.2936 239 150.294C98.5735 363.019 247.63 510.019 351.548 579.87C401.752 613.685 446.99 654.344 485.95 700.67C556.143 783.966 691.179 887.472 852 725.294C968.564 607.746 966.84 454.64 934.987 329.388Z" fill="#F2F2F2"/>
<path opacity="0.1" d="M719.6 507.394L818 409.294L719.6 311.194L749.6 281.294L878 409.294L749.6 537.294L719.6 507.394Z" fill="black"/>
<path opacity="0.1" d="M438.6 416.294H478.6V376.294H438.6V416.294ZM639.4 376.294H599.4V416.294H639.4V376.294ZM519 416.294H559V376.294H519V416.294Z" fill="black"/>
<path opacity="0.1" d="M384.4 506.394L285.9 408.294L384.3 310.194L354.3 280.294L226 408.294L354.4 536.294L384.4 506.394Z" fill="black"/>
<path d="M1088 752.294C1088 768.862 844.443 826.294 544 826.294C243.557 826.294 0 768.862 0 752.294C0 735.725 243.557 766.294 544 766.294C844.443 766.294 1088 735.725 1088 752.294Z" fill="#3F3D56"/>
<path opacity="0.1" d="M1088 752.294C1088 768.862 844.443 826.294 544 826.294C243.557 826.294 0 768.862 0 752.294C0 735.725 243.557 766.294 544 766.294C844.443 766.294 1088 735.725 1088 752.294Z" fill="black"/>
<path d="M544 782.294C844.443 782.294 1088 768.862 1088 752.294C1088 735.725 844.443 722.294 544 722.294C243.557 722.294 0 735.725 0 752.294C0 768.862 243.557 782.294 544 782.294Z" fill="#3F3D56"/>
<path d="M865.533 382.853C865.533 382.853 834.744 359.476 832.407 368.045C830.071 376.614 854.998 396.089 854.998 396.089L865.533 382.853Z" fill="#FFB9B9"/>
<path opacity="0.1" d="M865.533 382.853C865.533 382.853 834.744 359.476 832.407 368.045C830.071 376.614 854.998 396.089 854.998 396.089L865.533 382.853Z" fill="black"/>
<path d="M719.6 488.394L818 390.294L719.6 292.194L749.6 262.294L878 390.294L749.6 518.294L719.6 488.394Z" fill="#33A5F1"/>
<path d="M438.6 397.294H478.6V357.294H438.6V397.294ZM639.4 357.294H599.4V397.294H639.4V357.294ZM519 397.294H559V357.294H519V397.294Z" fill="#33A5F1"/>
<path d="M384.4 487.394L285.9 389.294L384.3 291.194L354.3 261.294L226 389.294L354.4 517.294L384.4 487.394Z" fill="#33A5F1"/>
</g>
<defs>
<clipPath id="clip0">
<rect width="1088" height="826.294" fill="white"/>
</clipPath>
</defs>
</svg>
